<svg width="32" height="32" viewBox="0 0 32 32" fill="none" xmlns="http://www.w3.org/2000/svg">
<path d="M28.0001 26.6667H26.6667V6.66666C26.6667 6.31303 26.5263 5.9739 26.2762 5.72385C26.0262 5.4738 25.687 5.33332 25.3334 5.33332C24.9798 5.33332 24.6407 5.4738 24.3906 5.72385C24.1406 5.9739 24.0001 6.31303 24.0001 6.66666V26.6667H21.3334V17.3333C21.3334 16.9797 21.1929 16.6406 20.9429 16.3905C20.6928 16.1405 20.3537 16 20.0001 16C19.6465 16 19.3073 16.1405 19.0573 16.3905C18.8072 16.6406 18.6667 16.9797 18.6667 17.3333V26.6667H16.0001V12C16.0001 11.6464 15.8596 11.3072 15.6096 11.0572C15.3595 10.8071 15.0204 10.6667 14.6667 10.6667C14.3131 10.6667 13.974 10.8071 13.7239 11.0572C13.4739 11.3072 13.3334 11.6464 13.3334 12V26.6667H10.6667V22.6667C10.6667 22.313 10.5263 21.9739 10.2762 21.7238C10.0262 21.4738 9.68704 21.3333 9.33342 21.3333C8.97979 21.3333 8.64065 21.4738 8.39061 21.7238C8.14056 21.9739 8.00008 22.313 8.00008 22.6667V26.6667H5.33341V3.99999C5.33341 3.64637 5.19294 3.30723 4.94289 3.05718C4.69284 2.80713 4.3537 2.66666 4.00008 2.66666C3.64646 2.66666 3.30732 2.80713 3.05727 3.05718C2.80722 3.30723 2.66675 3.64637 2.66675 3.99999V28C2.66675 28.3536 2.80722 28.6928 3.05727 28.9428C3.30732 29.1929 3.64646 29.3333 4.00008 29.3333H28.0001C28.3537 29.3333 28.6928 29.1929 28.9429 28.9428C29.1929 28.6928 29.3334 28.3536 29.3334 28C29.3334 27.6464 29.1929 27.3072 28.9429 27.0572C28.6928 26.8071 28.3537 26.6667 28.0001 26.6667Z" fill="white"/>
</svg>
