<svg width="24" height="24" viewBox="0 0 24 24" fill="none" xmlns="http://www.w3.org/2000/svg">
<path fill-rule="evenodd" clip-rule="evenodd" d="M24 12C24 18.6274 18.6274 24 12 24C5.37258 24 0 18.6274 0 12C0 5.37258 5.37258 0 12 0C18.6274 0 24 5.37258 24 12ZM12 10C11.4696 10 10.9609 10.2107 10.5858 10.5858C10.2107 10.9609 10 11.4696 10 12C10 12.5304 10.2107 13.0391 10.5858 13.4142C10.9609 13.7893 11.4696 14 12 14C12.5304 14 13.0391 13.7893 13.4142 13.4142C13.7893 13.0391 14 12.5304 14 12C14 11.4696 13.7893 10.9609 13.4142 10.5858C13.0391 10.2107 12.5304 10 12 10ZM7.05442 7.05442C7.72955 6.37928 8.64522 6 9.6 6H14.4C15.3548 6 16.2705 6.37928 16.9456 7.05442C17.6207 7.72955 18 8.64522 18 9.6V14.4C18 15.3548 17.6207 16.2705 16.9456 16.9456C16.2705 17.6207 15.3548 18 14.4 18H9.6C8.64522 18 7.72955 17.6207 7.05442 16.9456C6.37928 16.2705 6 15.3548 6 14.4V9.6C6 8.64522 6.37928 7.72955 7.05442 7.05442ZM10.0201 10.0201C9.495 10.5452 9.2 11.2574 9.2 12C9.2 12.7426 9.495 13.4548 10.0201 13.9799C10.5452 14.505 11.2574 14.8 12 14.8C12.7426 14.8 13.4548 14.505 13.9799 13.9799C14.505 13.4548 14.8 12.7426 14.8 12C14.8 11.2574 14.505 10.5452 13.9799 10.0201C13.4548 9.495 12.7426 9.2 12 9.2C11.2574 9.2 10.5452 9.495 10.0201 10.0201ZM15.6 9.2H14.8V8.4H15.6V9.2Z" fill="white"/>
</svg>
