<svg width="128" height="128" viewBox="0 0 128 128" fill="none" xmlns="http://www.w3.org/2000/svg">
<circle cx="64" cy="64" r="64" fill="#DAF0FF"/>
<g clip-path="url(#clip0_742_7659)">
<path d="M79.1807 43.4052H74.0135C73.6127 43.4052 73.2878 43.7414 73.2878 44.1562V67.7265H79.9065V44.1562C79.9065 43.7414 79.5815 43.4052 79.1807 43.4052Z" fill="#FFA85D"/>
<path d="M77.9453 43.4052H74.0135C73.6127 43.4052 73.2878 43.7414 73.2878 44.1562V67.7265H77.2197V44.1562C77.2197 43.7414 77.5445 43.4052 77.9453 43.4052Z" fill="#FF9839"/>
<path d="M90.6242 35.7673H85.4569C85.0562 35.7673 84.7313 36.1036 84.7313 36.5184V67.7265H91.35V36.5184C91.3498 36.1036 91.0249 35.7673 90.6242 35.7673Z" fill="#FEE55A"/>
<path d="M89.3888 35.7673H85.4569C85.0562 35.7673 84.7313 36.1036 84.7313 36.5184V67.7265H88.6631V36.5184C88.6631 36.1036 88.988 35.7673 89.3888 35.7673Z" fill="#FFD301"/>
<path d="M102.068 28.1839H96.9004C96.4996 28.1839 96.1746 28.5202 96.1746 28.935V67.7266H102.793V28.935C102.793 28.5202 102.469 28.1839 102.068 28.1839Z" fill="#43CB8E"/>
<path d="M100.832 28.1839H96.9006C96.4998 28.1839 96.1748 28.5202 96.1748 28.935V67.7266H100.107V28.935C100.107 28.5202 100.431 28.1839 100.832 28.1839Z" fill="#00BA66"/>
<path d="M67.7371 50.5042H63.8406C64.49 51.2523 64.8746 52.2344 64.8746 53.3035C64.8746 55.3989 63.9155 56.6336 61.8441 56.9404V67.7266H68.4628V51.2554C68.4629 50.8405 68.1379 50.5042 67.7371 50.5042Z" fill="#FF656F"/>
<path d="M66.5017 50.5042H63.8406C64.49 51.2523 64.8746 52.2344 64.8746 53.3035C64.8746 55.3989 63.9155 56.6336 61.8441 56.9404V67.7266H65.7759V51.2554C65.7761 50.8405 66.1011 50.5042 66.5017 50.5042Z" fill="#FF4756"/>
<path d="M67.5956 41.3713C67.1864 41.3713 66.7838 41.1716 66.5314 40.7983C66.1203 40.1907 66.2631 39.3531 66.8502 38.9275L85.4339 25.4622C86.0209 25.0366 86.8302 25.1845 87.2414 25.7921C87.6524 26.3997 87.5097 27.2373 86.9226 27.6629L68.3387 41.1283C68.1121 41.2924 67.8526 41.3713 67.5956 41.3713Z" fill="#23A8FE"/>
<path d="M104.187 69.0698H60.6545C59.9378 69.0698 59.3568 68.4684 59.3568 67.7266C59.3568 66.9848 59.9378 66.3835 60.6545 66.3835H104.187C104.904 66.3835 105.485 66.9848 105.485 67.7266C105.485 68.4684 104.904 69.0698 104.187 69.0698Z" fill="#23A8FE"/>
<path d="M41.9869 74.4034C46.3247 79.1738 53.4229 79.1736 57.7605 74.4031L59.3544 72.6503L56.8508 71.6469C56.3052 71.4282 55.9456 70.8849 55.9456 70.2794V65.7755C54.2609 66.9784 52.2209 67.6849 50.024 67.6849C47.7245 67.6849 45.7039 67.0316 44.0511 65.9386V70.2267C44.0511 70.8641 43.6728 71.4358 43.0987 71.6662L40.4606 72.7248L41.9869 74.4034Z" fill="#FFBD86"/>
<path d="M49.0276 67.6415C47.1383 67.4813 45.4605 66.8706 44.0511 65.9386V70.2267C44.0511 70.8641 43.6728 71.4359 43.0987 71.6662L40.4606 72.7248L41.9871 74.4034C43.9417 76.5531 46.4572 77.7305 49.0278 77.9428V67.6415H49.0276Z" fill="#F6A96C"/>
<path d="M60.3138 49.3808C61.7642 49.1872 63.2143 49.6675 64.1052 50.5402V44.9279C64.1052 36.792 57.7333 30.1967 49.8724 30.1967C42.0116 30.1967 35.6395 36.7918 35.6395 44.9279V50.6383C36.5844 49.7021 38.0964 49.1694 39.4316 49.2852V48.924C39.4316 48.3404 39.913 47.8795 40.4711 47.9233C45.974 48.3324 51.4078 46.5226 55.6421 43.6597C56.0373 43.3923 56.5609 43.4589 56.882 43.8161C60.5021 47.8435 60.3138 47.6877 60.3138 48.2135V49.3808Z" fill="#685E68"/>
<path d="M40.6354 44.9279C40.6354 37.6746 45.7015 31.6503 52.3703 30.4276C51.5589 30.2788 50.7251 30.1967 49.8725 30.1967C42.0117 30.1967 35.6396 36.7918 35.6396 44.9279V50.6383C36.5845 49.7021 38.0965 49.1694 39.4317 49.2852V48.924C39.4317 48.3404 39.9131 47.8795 40.4713 47.9233C40.526 47.9273 40.5808 47.9299 40.6355 47.9334V44.9279H40.6354Z" fill="#554E56"/>
<path d="M71.6791 77.5904L58.9072 72.4711L57.2615 74.2812C53.1977 78.7505 46.5476 78.7507 42.4836 74.2816L40.9057 72.5462L28.3342 77.5906C28.3342 77.5906 22.5151 80.0667 22.5151 86.9325V100.392H32.4189V112.18H67.5944V100.391H77.4982V86.9323C77.4982 80.0665 71.6791 77.5904 71.6791 77.5904Z" fill="#23A8FE"/>
<path d="M27.511 84.6917C27.511 79.95 30.2859 77.3029 32.0032 76.1183L28.3342 77.5904C28.3342 77.5904 22.5151 80.0665 22.5151 86.9323V100.391H27.511V84.6917Z" fill="#0193FA"/>
<path d="M38.4115 77.0908C44.6752 83.9789 54.9249 83.9788 61.1882 77.0904L63.6572 74.3751L58.9072 72.4711L57.2615 74.2812C53.1976 78.7505 46.5476 78.7507 42.4836 74.2816L40.9057 72.5462L36.0505 74.4944L38.4115 77.0908Z" fill="#60B8FE"/>
<path d="M67.5944 96.1107H77.4981V100.736H67.5944V96.1107Z" fill="#60B8FE"/>
<path d="M22.5153 96.1107H32.419V100.736H22.5153V96.1107Z" fill="#60B8FE"/>
<path d="M22.5153 96.1107H27.5112V100.736H22.5153V96.1107Z" fill="#23A8FE"/>
<path d="M67.5944 112.18H74.8461C76.3108 112.18 77.4981 110.951 77.4981 109.435V100.391H67.5944V112.18Z" fill="#FFBD86"/>
<path d="M25.1671 112.18H32.4189V100.391H22.5153V109.435C22.5153 110.951 23.7026 112.18 25.1671 112.18Z" fill="#FFBD86"/>
<path d="M27.511 109.602V100.391H22.5153V109.435C22.5153 110.951 23.7026 112.18 25.1673 112.18H29.0452C28.1358 111.703 27.511 110.729 27.511 109.602Z" fill="#F6A96C"/>
<path d="M33.6681 112.18V89.2923C33.6681 88.5783 33.1089 87.9995 32.4191 87.9995C31.7292 87.9995 31.17 88.5783 31.17 89.2923V112.18H33.6681Z" fill="#0193FA"/>
<path d="M68.8434 112.18V89.2923C68.8434 88.5783 68.2842 87.9995 67.5943 87.9995C66.9045 87.9995 66.3453 88.5783 66.3453 89.2923V112.18H68.8434Z" fill="#0193FA"/>
<path d="M60.3761 49.0495V57.2904C60.3761 57.3798 60.3715 57.4679 60.3695 57.5569C63.1872 57.9985 65.394 55.8913 65.394 53.3034C65.394 50.7106 63.1852 48.6136 60.3761 49.0495Z" fill="#FFBD86"/>
<path d="M39.4742 57.3733V48.9634C36.97 48.6173 34.3513 50.6065 34.3513 53.3032C34.3513 55.9417 36.5992 58.0967 39.4806 57.6454C39.4784 57.5545 39.4742 57.4641 39.4742 57.3733Z" fill="#FFBD86"/>
<path d="M64.109 50.1995C63.1966 49.3033 61.8714 48.8174 60.3759 49.0495V57.2904C60.3759 57.3797 60.3714 57.4679 60.3694 57.5569C61.8693 57.7919 63.196 57.3046 64.109 56.4072V50.1995Z" fill="#F6A96C"/>
<path d="M39.4742 56.5453C38.6088 55.7358 38.0844 54.5763 38.0844 53.3032C38.0844 52.0664 38.6362 50.9792 39.4742 50.197V48.9634C36.97 48.6173 34.3513 50.6065 34.3513 53.3032C34.3513 55.9417 36.5992 58.0967 39.4806 57.6454C39.4786 57.5546 39.4742 57.4642 39.4742 57.3733V56.5453Z" fill="#F6A96C"/>
<path d="M56.8822 43.2991C56.5609 42.9417 56.0375 42.8753 55.6423 43.1427C51.4079 46.0056 45.8077 47.8153 40.3047 47.4063C39.7465 47.3625 39.2651 47.8233 39.2651 48.4069V57.2075C39.2651 62.8636 43.5472 68.0297 50.0242 68.0297C55.7899 68.0297 60.4806 63.1748 60.4806 57.2075V47.6964C60.4804 47.1707 60.5023 47.3265 56.8822 43.2991Z" fill="#FED2A4"/>
<path d="M44.2609 57.2075V47.3326C42.9499 47.4737 41.6246 47.5045 40.3047 47.4063C39.7465 47.3625 39.2651 47.8233 39.2651 48.4069V57.2075C39.2651 62.8636 43.5472 68.0297 50.0242 68.0297C50.8311 68.0297 51.6159 67.9314 52.3707 67.7515C47.7316 66.6458 44.2609 62.3396 44.2609 57.2075Z" fill="#FFBD86"/>
<path d="M88.6185 29.5384L90.1727 24.2016C90.273 23.8571 90.0356 23.5061 89.6884 23.4855L84.3116 23.1709C83.8635 23.1446 83.5836 23.6648 83.841 24.0453L87.6636 29.6968C87.9211 30.0775 88.489 29.9833 88.6185 29.5384Z" fill="#23A8FE"/>
</g>
<defs>
<clipPath id="clip0_742_7659">
<rect width="86" height="89.01" fill="white" transform="translate(21 23.17)"/>
</clipPath>
</defs>
</svg>
