<svg width="32" height="32" viewBox="0 0 32 32" fill="none" xmlns="http://www.w3.org/2000/svg">
<path d="M28.0001 2.66666H20.0001C19.6465 2.66666 19.3073 2.80713 19.0573 3.05718C18.8072 3.30723 18.6667 3.64637 18.6667 3.99999C18.6667 4.35361 18.8072 4.69275 19.0573 4.9428C19.3073 5.19285 19.6465 5.33332 20.0001 5.33332H26.6667V12C26.6667 12.3536 26.8072 12.6927 27.0573 12.9428C27.3073 13.1928 27.6465 13.3333 28.0001 13.3333C28.3537 13.3333 28.6928 13.1928 28.9429 12.9428C29.1929 12.6927 29.3334 12.3536 29.3334 12V3.99999C29.3334 3.64637 29.1929 3.30723 28.9429 3.05718C28.6928 2.80713 28.3537 2.66666 28.0001 2.66666ZM28.0001 18.6667C27.6465 18.6667 27.3073 18.8071 27.0573 19.0572C26.8072 19.3072 26.6667 19.6464 26.6667 20V26.6667H20.0001C19.6465 26.6667 19.3073 26.8071 19.0573 27.0572C18.8072 27.3072 18.6667 27.6464 18.6667 28C18.6667 28.3536 18.8072 28.6928 19.0573 28.9428C19.3073 29.1929 19.6465 29.3333 20.0001 29.3333H28.0001C28.3537 29.3333 28.6928 29.1929 28.9429 28.9428C29.1929 28.6928 29.3334 28.3536 29.3334 28V20C29.3334 19.6464 29.1929 19.3072 28.9429 19.0572C28.6928 18.8071 28.3537 18.6667 28.0001 18.6667ZM16.0001 7.99999C14.9392 7.99999 13.9218 8.42142 13.1717 9.17156C12.4215 9.92171 12.0001 10.9391 12.0001 12V13.3333C11.2928 13.3333 10.6146 13.6143 10.1145 14.1144C9.61437 14.6145 9.33342 15.2927 9.33342 16V21.3333C9.33342 22.0406 9.61437 22.7188 10.1145 23.2189C10.6146 23.719 11.2928 24 12.0001 24H20.0001C20.7073 24 21.3856 23.719 21.8857 23.2189C22.3858 22.7188 22.6667 22.0406 22.6667 21.3333V16C22.6667 15.2927 22.3858 14.6145 21.8857 14.1144C21.3856 13.6143 20.7073 13.3333 20.0001 13.3333V12C20.0001 10.9391 19.5787 9.92171 18.8285 9.17156C18.0784 8.42142 17.0609 7.99999 16.0001 7.99999ZM14.6667 12C14.6667 11.6464 14.8072 11.3072 15.0573 11.0572C15.3073 10.8071 15.6465 10.6667 16.0001 10.6667C16.3537 10.6667 16.6928 10.8071 16.9429 11.0572C17.1929 11.3072 17.3334 11.6464 17.3334 12V13.3333H14.6667V12ZM20.0001 21.3333H12.0001V16H20.0001V21.3333ZM4.00008 13.3333C4.3537 13.3333 4.69284 13.1928 4.94289 12.9428C5.19294 12.6927 5.33341 12.3536 5.33341 12V5.33332H12.0001C12.3537 5.33332 12.6928 5.19285 12.9429 4.9428C13.1929 4.69275 13.3334 4.35361 13.3334 3.99999C13.3334 3.64637 13.1929 3.30723 12.9429 3.05718C12.6928 2.80713 12.3537 2.66666 12.0001 2.66666H4.00008C3.64646 2.66666 3.30732 2.80713 3.05727 3.05718C2.80722 3.30723 2.66675 3.64637 2.66675 3.99999V12C2.66675 12.3536 2.80722 12.6927 3.05727 12.9428C3.30732 13.1928 3.64646 13.3333 4.00008 13.3333ZM12.0001 26.6667H5.33341V20C5.33341 19.6464 5.19294 19.3072 4.94289 19.0572C4.69284 18.8071 4.3537 18.6667 4.00008 18.6667C3.64646 18.6667 3.30732 18.8071 3.05727 19.0572C2.80722 19.3072 2.66675 19.6464 2.66675 20V28C2.66675 28.3536 2.80722 28.6928 3.05727 28.9428C3.30732 29.1929 3.64646 29.3333 4.00008 29.3333H12.0001C12.3537 29.3333 12.6928 29.1929 12.9429 28.9428C13.1929 28.6928 13.3334 28.3536 13.3334 28C13.3334 27.6464 13.1929 27.3072 12.9429 27.0572C12.6928 26.8071 12.3537 26.6667 12.0001 26.6667Z" fill="white"/>
</svg>
