<svg width="500" height="500" viewBox="0 0 500 500" fill="none" xmlns="http://www.w3.org/2000/svg">
<path d="M175.183 125.2H320.2C320.2 125.2 167.317 313.683 139.117 346.283C114.067 375.233 118.133 415.267 118.133 415.267L396.067 84.6666C396.067 84.6666 210.25 84.6666 178.317 84.6666C178.317 84.6666 132.483 87.1 118.117 131.367C118.133 131.367 138.6 125.2 175.183 125.2Z" fill="white"/>
<path d="M339.7 393.75H194.667C194.667 393.75 347.55 205.267 375.75 172.667C400.8 143.717 396.733 103.683 396.733 103.683L118.8 434.283C118.8 434.283 304.617 434.283 336.55 434.283C336.55 434.283 382.383 431.85 396.75 387.583C396.75 387.583 376.283 393.75 339.7 393.75Z" fill="white"/>
</svg>
