<svg width="24" height="24" viewBox="0 0 24 24" fill="none" xmlns="http://www.w3.org/2000/svg">
<path fill-rule="evenodd" clip-rule="evenodd" d="M12 24C18.6274 24 24 18.6274 24 12C24 5.37258 18.6274 0 12 0C5.37258 0 0 5.37258 0 12C0 18.6274 5.37258 24 12 24ZM18 10.582C18 10.4672 17.8641 10.3992 17.7727 10.4719C17.2477 10.8797 16.5539 11.4 14.1633 13.1367C14.0908 13.1896 14.0095 13.2524 13.9209 13.3209C13.4285 13.7019 12.7092 14.2583 12 14.2523C11.2941 14.2563 10.5865 13.7103 10.0862 13.3243C9.99682 13.2553 9.91403 13.1914 9.83906 13.1367C7.44844 11.4 6.75234 10.882 6.22734 10.4742C6.13359 10.4016 6 10.4672 6 10.5844V15.375C6 15.9961 6.50391 16.5 7.125 16.5H16.875C17.4961 16.5 18 15.9961 18 15.375V10.582ZM13.4869 12.7069C13.0654 13.0327 12.4506 13.5078 12 13.5C11.5494 13.5078 10.9346 13.0327 10.5131 12.7069C10.426 12.6396 10.3471 12.5787 10.2797 12.5297C7.39709 10.4378 6.98283 10.1136 6.36664 9.63138C6.318 9.59332 6.2681 9.55427 6.21562 9.51328C6.07969 9.40547 6 9.24375 6 9.07031V8.625C6 8.00391 6.50391 7.5 7.125 7.5H16.875C17.4961 7.5 18 8.00391 18 8.625V9.07031C18 9.24375 17.9203 9.40781 17.7844 9.51328C17.7442 9.54483 17.7054 9.57522 17.6677 9.60489C17.0316 10.1043 16.6561 10.3992 13.7203 12.5297C13.6529 12.5787 13.574 12.6396 13.4869 12.7069Z" fill="white"/>
</svg>
