<svg width="128" height="128" viewBox="0 0 128 128" fill="none" xmlns="http://www.w3.org/2000/svg">
<circle cx="64" cy="64" r="64" fill="#EADAFF"/>
<path d="M86.2589 86.9855L69.3932 100.405C67.0937 102.234 63.8421 102.257 61.5174 100.46L44.1438 87.0272C36.2536 80.9269 31.7678 72.3528 31.7678 63.3711V45.9921C31.7678 43.5562 33.1549 41.3326 35.3429 40.2613L62.7191 26.8574C64.517 25.9773 66.624 25.9917 68.4095 26.8967L94.7353 40.2398C96.8799 41.3269 98.2314 43.527 98.2314 45.9313V63.6453C98.232 72.4663 93.9045 80.902 86.2589 86.9855Z" fill="#9E70DC"/>
<path d="M94.736 40.2398L94.3506 40.0446C94.6893 40.8291 94.8727 41.6867 94.8727 42.5719V60.2859C94.8727 69.1069 90.5455 77.5427 82.8995 83.6261L66.0338 97.0455C63.7343 98.875 60.4828 98.8979 58.1581 97.1003L40.7844 83.6681C40.2147 83.2274 39.6627 82.7742 39.1289 82.3086C40.6003 84.0017 42.2766 85.584 44.1438 87.0275L61.5175 100.46C63.8421 102.257 67.0937 102.234 69.3932 100.405L86.2589 86.9855C93.9045 80.902 98.2321 72.4666 98.2321 63.6453V45.9313C98.2321 43.527 96.8806 41.3269 94.736 40.2398Z" fill="#8255BE"/>
<path d="M95.4441 40.6584C96.153 41.6985 96.5521 42.9448 96.5521 44.2516V61.9656C96.5521 70.7866 92.2249 79.2223 84.5789 85.3058L67.7132 98.7252C65.4137 100.555 62.1622 100.578 59.8375 98.7799L42.4638 85.3478C41.5699 84.6568 40.7199 83.9339 39.915 83.1824C41.1889 84.5483 42.6012 85.8353 44.1435 87.0275L61.5172 100.46C63.8418 102.257 67.0934 102.234 69.3929 100.405L86.2586 86.9855C93.9042 80.902 98.2318 72.4666 98.2318 63.6453V45.9313C98.2321 43.8038 97.1736 41.8365 95.4441 40.6584Z" fill="#9266CC"/>
<path d="M33.7849 64.0437C33.4154 64.0437 33.113 63.7413 33.113 63.3718C33.113 63.0023 33.4154 62.6999 33.7849 62.6999C34.1544 62.6999 34.4568 63.0023 34.4568 63.3718C34.4568 63.7413 34.1544 64.0437 33.7849 64.0437ZM33.7849 61.3562C33.4154 61.3562 33.113 61.0538 33.113 60.6843V45.9938C33.113 44.0856 34.2216 42.3085 35.9349 41.4687L63.3105 28.0648C63.6363 27.9035 64.0495 28.048 64.2108 28.3738C64.372 28.7064 64.2343 29.1095 63.9017 29.2708L36.5262 42.6747C35.2664 43.2895 34.4534 44.5895 34.4568 45.9938V60.6843C34.4568 61.0538 34.1544 61.3562 33.7849 61.3562Z" fill="#BE98F1"/>
<path d="M78.2986 83.3272H51.7017C50.7379 83.3272 49.9565 82.5458 49.9565 81.582V59.274C49.9565 58.3102 50.7379 57.5288 51.7017 57.5288H78.2983C79.2621 57.5288 80.0434 58.3102 80.0434 59.274V81.582C80.0434 82.5458 79.2624 83.3272 78.2986 83.3272Z" fill="#FFA91A"/>
<path d="M78.2985 57.5292H76.6843V78.2226C76.6843 79.1864 75.9029 79.9678 74.9391 79.9678H49.9568V81.582C49.9568 82.5458 50.7382 83.3272 51.702 83.3272H78.2985C79.2623 83.3272 80.0437 82.5458 80.0437 81.582V59.274C80.0434 58.3106 79.2623 57.5292 78.2985 57.5292Z" fill="#F79219"/>
<path d="M77.7561 57.5292H73.3933V49.8433C73.3933 45.2154 69.6281 41.4502 65.0003 41.4502C60.3724 41.4502 56.6072 45.2154 56.6072 49.8433V57.5292H52.2444V49.8433C52.2444 42.8097 57.9664 37.0874 65.0003 37.0874C72.0341 37.0874 77.7561 42.8094 77.7561 49.8433V57.5292Z" fill="#E6E7E8"/>
<path d="M73.1714 40.0275C75.0063 42.2373 76.1112 45.0736 76.1112 48.1636V55.8495H73.428V57.5292H77.7909V49.8433C77.7909 45.8997 75.9916 42.369 73.1714 40.0275Z" fill="#D1D3D4"/>
<path d="M69.1093 75.3954L66.9401 69.3384C67.8855 68.7099 68.5093 67.6359 68.5093 66.4154C68.5093 64.4774 66.9381 62.9065 65.0004 62.9065C63.0627 62.9065 61.4916 64.4774 61.4916 66.4154C61.4916 67.6359 62.1154 68.7099 63.0607 69.3384L60.8916 75.3954C60.5781 76.2708 61.2268 77.1923 62.1567 77.1923H67.8448C68.774 77.1919 69.4227 76.2705 69.1093 75.3954Z" fill="#995222"/>
<path d="M69.1094 75.3953L66.9403 69.3384C67.8856 68.7099 68.5095 67.6359 68.5095 66.4154C68.5095 65.0884 67.7728 63.9342 66.6863 63.3379C66.9594 63.8374 67.1153 64.4102 67.1153 65.0196C67.1153 66.24 66.4915 67.314 65.5462 67.9426L67.7153 73.9995C68.0287 74.875 67.38 75.7965 66.4502 75.7965H60.8148C60.7849 76.5308 61.3684 77.1923 62.1562 77.1923H67.8443C68.7742 77.1919 69.4229 76.2705 69.1094 75.3953Z" fill="#8C3F0A"/>
</svg>
