<svg width="128" height="128" viewBox="0 0 128 128" fill="none" xmlns="http://www.w3.org/2000/svg">
<circle cx="64" cy="64" r="64" fill="#FFF8DD"/>
<g clip-path="url(#clip0_742_7603)">
<path d="M45.0863 96.7536L42.8474 92.0819C42.7448 91.8678 42.5841 91.6872 42.383 91.5607L42.3546 91.5427C41.9668 91.2982 41.4766 91.2841 41.0749 91.5056C39.348 92.4582 38.0919 93.3724 37.2558 94.0621L32.9375 85.8138C32.7717 85.4972 32.4791 85.2658 32.1326 85.1774C31.7865 85.0892 31.4185 85.1524 31.1214 85.3513L21.5586 91.7514C21.1933 91.9961 20.9818 92.4135 21.001 92.8527C21.0201 93.292 21.2668 93.6894 21.6523 93.9015L28.6978 97.7766V105.559C28.6978 106.011 28.9402 106.429 29.3327 106.653C29.5264 106.764 29.7417 106.819 29.9572 106.819C30.1786 106.819 30.4001 106.76 30.5975 106.644L44.5909 98.3826C45.1535 98.0502 45.3686 97.343 45.0863 96.7536Z" fill="#FFAC33"/>
<path d="M106.441 91.7513L96.8783 85.3512C96.5812 85.1522 96.2133 85.0892 95.8671 85.1774C95.5206 85.2656 95.2278 85.4969 95.0622 85.8138L90.7439 94.0621C89.9078 93.3724 88.6515 92.4581 86.9247 91.5056C86.5232 91.2839 86.0331 91.2981 85.6449 91.5427L85.6165 91.5607C85.4156 91.6873 85.2549 91.8679 85.1521 92.0819L82.9134 96.7536C82.631 97.3428 82.8462 98.0501 83.4089 98.3824L97.4022 106.644C97.5996 106.76 97.8208 106.819 98.0425 106.819C98.2578 106.819 98.4733 106.763 98.667 106.653C99.0595 106.429 99.3019 106.011 99.3019 105.559V97.7763L106.347 93.9013C106.733 93.6893 106.98 93.2919 106.999 92.8525C107.018 92.4133 106.807 91.9959 106.441 91.7513Z" fill="#FFAC33"/>
<path d="M45.0864 96.7536L42.8476 92.0819C42.6457 91.6608 42.2212 91.3857 41.7544 91.3675C41.7544 91.3675 41.7168 91.366 41.6526 91.366C41.4391 91.366 41.2297 91.4203 41.0429 91.5236C37.5774 93.4408 36.019 95.1984 35.9541 95.2723C35.654 95.6154 35.5626 96.0941 35.7155 96.524C35.8683 96.9536 36.2415 97.2671 36.6912 97.3432L43.7396 98.5396C43.81 98.5515 43.8806 98.5574 43.9506 98.5574C44.3416 98.5574 44.7159 98.3748 44.9559 98.0562C45.2396 97.6803 45.2897 97.1781 45.0864 96.7536Z" fill="#8C1E23"/>
<path d="M92.0454 95.2723C91.9805 95.1984 90.4221 93.4409 86.9566 91.5236C86.77 91.4203 86.5604 91.366 86.3469 91.366C86.2832 91.366 86.2454 91.3675 86.2454 91.3675C85.7786 91.3853 85.3538 91.6605 85.1519 92.0819L82.9133 96.7536C82.7098 97.1779 82.7601 97.6803 83.0434 98.056C83.2838 98.3747 83.6577 98.5572 84.0487 98.5572C84.1188 98.5572 84.1893 98.5514 84.2597 98.5394L91.308 97.343C91.7576 97.2667 92.1307 96.9533 92.2837 96.5238C92.4369 96.0942 92.3455 95.6153 92.0454 95.2723Z" fill="#8C1E23"/>
<path d="M39.5553 76.5151C39.2539 75.8928 38.507 75.6298 37.882 75.926C31.7635 78.8275 29.1093 81.8894 28.9995 82.0181C28.6657 82.4093 28.6034 82.9641 28.8416 83.4196L35.7866 96.6854C35.9785 97.0519 36.3398 97.2988 36.7504 97.3494C36.8014 97.3556 36.8522 97.3587 36.9029 97.3587C37.2607 97.3587 37.6062 97.205 37.8469 96.9344C37.8541 96.9263 38.5844 96.1132 40.1606 95.0242C41.6172 94.0179 44.1146 92.564 47.7405 91.3511C48.1485 91.2145 48.4584 90.8794 48.5627 90.4624C48.667 90.0451 48.5513 89.6035 48.2557 89.2911C44.8385 85.6798 41.911 81.3815 39.5553 76.5151Z" fill="#E93234"/>
<path d="M99.001 82.0181C98.8911 81.8891 96.2367 78.8275 90.1186 75.926C89.4935 75.6297 88.747 75.8926 88.4455 76.5151C86.0892 81.3818 83.1617 85.6803 79.7446 89.2909C79.449 89.6032 79.3332 90.045 79.4375 90.4622C79.542 90.8794 79.8519 91.2147 80.2597 91.3509C83.8857 92.564 86.383 94.0179 87.8396 95.024C89.416 96.113 90.1462 96.9261 90.15 96.9302C90.3907 97.2055 90.7371 97.3607 91.0981 97.3607C91.1474 97.3607 91.197 97.3578 91.2465 97.3519C91.6592 97.3029 92.0214 97.0538 92.214 96.6854L99.159 83.4196C99.397 82.9642 99.3347 82.4094 99.001 82.0181Z" fill="#E93234"/>
<path d="M99.001 82.0181C98.8911 81.8891 96.2367 78.8275 90.1186 75.926C89.4935 75.6297 88.747 75.8926 88.4455 76.5151C86.0892 81.3818 83.1617 85.6803 79.7446 89.2909C79.449 89.6032 79.3332 90.045 79.4375 90.4622C79.542 90.8794 79.8519 91.2147 80.2597 91.3509C83.8857 92.564 86.383 94.0179 87.8396 95.024C89.416 96.113 90.1462 96.9261 90.15 96.9302C90.3907 97.2055 90.7371 97.3607 91.0981 97.3607C91.1474 97.3607 91.197 97.3578 91.2465 97.3519C91.6592 97.3029 92.0214 97.0538 92.214 96.6854L99.159 83.4196C99.397 82.9642 99.3347 82.4094 99.001 82.0181Z" fill="#E93234"/>
<path d="M79.4368 90.4622C79.3325 90.0449 79.4482 89.6033 79.7439 89.2909C83.1613 85.6798 86.0889 81.3815 88.4444 76.5151C88.7458 75.8927 89.4927 75.6297 90.1177 75.926C91.743 76.6968 93.1215 77.4784 94.2751 78.2137C93.0036 80.7674 91.5868 83.1659 90.0232 85.3946C88.1369 88.0831 86.0393 90.5278 83.739 92.723C82.7219 92.2559 81.5648 91.7878 80.259 91.3511C79.8514 91.2147 79.5413 90.8792 79.4368 90.4622Z" fill="#FFAC33"/>
<path d="M48.5629 90.4622C48.6672 90.0449 48.5515 89.6033 48.2559 89.2909C44.8386 85.6798 41.9109 81.3815 39.5553 76.5151C39.254 75.8927 38.507 75.6297 37.882 75.926C36.2567 76.6968 34.8782 77.4784 33.7246 78.2137C34.9963 80.7674 36.4129 83.1659 37.9767 85.3946C39.863 88.0831 41.9606 90.5278 44.2609 92.723C45.278 92.2559 46.4351 91.7878 47.7409 91.3511C48.1486 91.2147 48.4585 90.8792 48.5629 90.4622Z" fill="#FFAC33"/>
<path d="M97.9685 35.1146C97.9074 34.5211 97.4384 34.052 96.845 33.9908C86.8213 32.9568 78.6515 29.6139 73.5632 26.9919C68.032 24.1417 64.8388 21.5004 64.8079 21.4747C64.3402 21.084 63.66 21.084 63.1923 21.4747C63.0667 21.5798 50.3989 32.0058 31.1552 33.991C30.5618 34.0523 30.0928 34.5213 30.0317 35.1147C29.9773 35.6442 28.7361 48.2512 32.1773 62.9335C34.2072 71.5938 37.4577 79.151 41.8387 85.3947C47.3422 93.2387 54.6419 99.0096 63.5345 102.547C63.6842 102.606 63.8419 102.636 63.9999 102.636C64.158 102.636 64.3159 102.606 64.4654 102.547C73.358 99.0096 80.6577 93.2387 86.1612 85.3947C90.5423 79.1508 93.7927 71.5939 95.8226 62.9335C99.2641 48.251 98.0228 35.644 97.9685 35.1146Z" fill="#F5BA3D"/>
<path d="M97.9683 35.1146C97.9072 34.5211 97.4382 34.052 96.8448 33.9909C95.8102 33.8842 94.7967 33.7515 93.803 33.599C94.0333 38.0184 94.1626 48.4143 91.4283 60.0812C89.3327 69.0218 85.977 76.8235 81.4541 83.2693C75.8788 91.2157 68.5165 97.0994 59.5684 100.768C60.8528 101.413 62.1747 102.006 63.5343 102.547C63.6839 102.606 63.8416 102.636 63.9997 102.636C64.1578 102.636 64.3157 102.606 64.4651 102.547C73.3577 99.0096 80.6575 93.2387 86.161 85.3947C90.5421 79.1508 93.7924 71.5939 95.8223 62.9335C99.2638 48.251 98.0226 35.644 97.9683 35.1146Z" fill="#F2A325"/>
<path d="M90.1747 41.4668C90.1135 40.8734 89.6446 40.4042 89.0511 40.3431C74.5224 38.8443 64.9021 30.9553 64.8076 30.8765C64.3399 30.4859 63.6597 30.4859 63.1921 30.8765C63.0972 30.956 53.5176 38.8401 38.9485 40.3431C38.3551 40.4044 37.8861 40.8734 37.825 41.4668C37.7833 41.8721 36.8329 51.5247 39.4658 62.7578C41.0209 69.3925 43.5129 75.1843 46.8721 79.9724C51.0988 85.9962 56.7049 90.4284 63.5342 93.1451C63.6839 93.2046 63.8416 93.2343 63.9996 93.2343C64.1577 93.2343 64.3156 93.2046 64.4651 93.1451C71.2947 90.4284 76.9006 85.9964 81.1272 79.9724C84.4867 75.1843 86.9786 69.3925 88.5334 62.7578C91.1667 51.5244 90.2163 41.8721 90.1747 41.4668Z" fill="#FFDB57"/>
<path d="M60.3572 72.7123C59.4586 72.7123 58.5966 72.3554 57.9611 71.7199L50.2539 64.0127C48.9307 62.6894 48.9307 60.5438 50.2539 59.2204C51.5772 57.8971 53.7226 57.8971 55.0461 59.2204L60.3572 64.5316L73.3754 51.5133C74.6987 50.1901 76.8442 50.1899 78.1676 51.5132C79.4908 52.8364 79.4908 54.982 78.1676 56.3055L62.7533 71.7196C62.118 72.3552 61.2558 72.7123 60.3572 72.7123Z" fill="#00B76C"/>
</g>
<defs>
<clipPath id="clip0_742_7603">
<rect width="86" height="86" fill="white" transform="translate(21 21)"/>
</clipPath>
</defs>
</svg>
